<svg width="34" height="27" viewBox="5 5 25 25" fill="none" xmlns="http://www.w3.org/2000/svg">
<path d="M15.5473 16.5131V20.0227C15.5473 20.4675 15.0807 20.8324 14.4998 20.8324C14.2379 20.8324 13.9774 20.7557 13.7782 20.61C11.3055 18.791 6.88954 15.5448 4.86823 14.0582C4.58962 13.8542 4.43359 13.5703 4.43359 13.2756C4.43359 12.9798 4.58962 12.6969 4.86823 12.4929C6.88954 11.0064 11.3055 7.75909 13.7782 5.94222C13.9774 5.7954 14.2379 5.71875 14.4998 5.71875C15.0807 5.71875 15.5473 6.08256 15.5473 6.52841V10.038H28.1127C28.8524 10.038 29.5085 10.5454 29.5085 11.1176V15.4336C29.5085 16.0057 28.8524 16.5131 28.1127 16.5131H15.5473Z" fill="black"/>
</svg>
