<svg width="18" height="11" viewBox="0 0 18 11" fill="none" xmlns="http://www.w3.org/2000/svg">
<path d="M9.70219 3.03094L9.70235 0.568062C9.70237 0.255941 10.0267 -9.82502e-05 10.4304 -7.1576e-05C10.6124 -5.95503e-05 10.7934 0.0537398 10.9318 0.156022C12.65 1.43265 15.7186 3.71088 17.1232 4.75416C17.3168 4.89735 17.4252 5.0966 17.4252 5.30342C17.4251 5.51099 17.3167 5.70947 17.1231 5.85264C15.7184 6.89573 12.6495 9.17431 10.9311 10.4492C10.7927 10.5522 10.6117 10.606 10.4297 10.606C10.026 10.606 9.7017 10.3506 9.70173 10.0378L9.70189 7.57488L0.970061 7.5743C0.456026 7.57426 9.62601e-05 7.21817 0.000122791 6.81666L0.000322927 3.78787C0.000349459 3.38636 0.456326 3.03033 0.970362 3.03036L9.70219 3.03094Z" fill="black"/>
</svg>
