<svg width="24" height="24" viewBox="0 0 24 24" fill="none" xmlns="http://www.w3.org/2000/svg">
<g clip-path="url(#clip0_105_481)">
<path d="M12 2C17.514 2 22 6.486 22 12C22 17.514 17.514 22 12 22C6.486 22 2 17.514 2 12C2 6.486 6.486 2 12 2ZM12 0C5.373 0 0 5.373 0 12C0 18.627 5.373 24 12 24C18.627 24 24 18.627 24 12C24 5.373 18.627 0 12 0ZM17.848 12.459C18.05 12.497 18.05 12.792 17.849 12.831C15.942 13.192 11.804 13.942 11.302 13.942C10.583 13.942 10.001 13.36 10.001 12.641C10.001 12.129 10.771 7.194 11.126 5.196C11.16 5.004 11.438 5.015 11.469 5.21L12.454 11.448L17.848 12.459Z" fill="#96B9A0"/>
</g>
<defs>
<clipPath id="clip0_105_481">
<rect width="24" height="24" fill="white"/>
</clipPath>
</defs>
</svg>
