<svg width="18" height="18" viewBox="0 0 18 18" fill="none" xmlns="http://www.w3.org/2000/svg">
<path d="M8.97252 1.42014C12.8411 1.42014 15.9884 4.61099 15.9884 8.53304C15.9884 12.4551 12.8411 15.6459 8.97252 15.6459C5.10397 15.6459 1.95664 12.4551 1.95664 8.53304C1.95664 4.61099 5.10397 1.42014 8.97252 1.42014ZM8.97252 -0.00244141C4.3231 -0.00244141 0.553467 3.81932 0.553467 8.53304C0.553467 13.2468 4.3231 17.0685 8.97252 17.0685C13.6219 17.0685 17.3916 13.2468 17.3916 8.53304C17.3916 3.81932 13.6219 -0.00244141 8.97252 -0.00244141ZM13.0754 8.85952C13.2171 8.88655 13.2171 9.09638 13.0761 9.12412C11.7382 9.3809 8.83501 9.91436 8.48281 9.91436C7.97837 9.91436 7.57005 9.50039 7.57005 8.98898C7.57005 8.6248 8.11027 5.11458 8.35933 3.69342C8.38319 3.55685 8.57823 3.56468 8.59998 3.70338L9.29104 8.14041L13.0754 8.85952Z" fill="black"/>
</svg>
