<svg width="20" height="50" viewBox="0 0 20 69" fill="none" xmlns="http://www.w3.org/2000/svg">
<path d="M19.132 12.5145L14.7108 48.935C14.4292 51.2552 12.4598 53 10.1225 53C7.75508 53 5.77039 51.2111 5.52538 48.8564L1.57231 10.864C1.22654 7.54086 2.93554 4.34123 5.88977 2.78072C8.02691 1.65182 10.5538 1.52534 12.7929 2.43519L13.3265 2.65201C17.2657 4.2526 19.6443 8.29354 19.132 12.5145Z" fill="black"/>
<path d="M16 63.5C16 66.5376 13.5376 69 10.5 69C7.46243 69 5 66.5376 5 63.5C5 60.4624 7.46243 58 10.5 58C13.5376 58 16 60.4624 16 63.5Z" fill="black"/>
<path d="M18.132 11.5145L13.7108 47.935C13.4292 50.2552 11.4598 52 9.12254 52C6.75508 52 4.77039 50.2111 4.52538 47.8564L0.572306 9.86398C0.226538 6.54086 1.93554 3.34123 4.88977 1.78072C7.02691 0.651816 9.55375 0.525338 11.7929 1.43519L12.3265 1.65201C16.2657 3.2526 18.6443 7.29354 18.132 11.5145Z" fill="#FFCB66"/>
<path d="M15 62.5C15 65.5376 12.5376 68 9.5 68C6.46243 68 4 65.5376 4 62.5C4 59.4624 6.46243 57 9.5 57C12.5376 57 15 59.4624 15 62.5Z" fill="#FFCB66"/>
</svg>
