<svg width="57" height="57" viewBox="0 0 57 57" fill="none" xmlns="http://www.w3.org/2000/svg">
<g clip-path="url(#clip0_392_2822)">
<path d="M37.0583 10.8938C35.6093 10.0523 34.7137 8.48633 34.716 6.79883V6.79208C34.7183 4.15508 32.6055 2.01758 30 2.01758C27.3945 2.01758 25.2817 4.15508 25.2817 6.79208V6.79883C25.284 8.48858 24.3908 10.0523 22.9395 10.8938C12.4388 16.9958 18.4732 37.2526 7.5 40.8323V44.7676H52.5V40.8323C41.5267 37.2526 47.5612 16.9958 37.0583 10.8938ZM30 4.26758C31.242 4.26758 32.25 5.27783 32.25 6.51758C32.25 7.75958 31.242 8.76758 30 8.76758C28.758 8.76758 27.75 7.75958 27.75 6.51758C27.75 5.27783 28.758 4.26758 30 4.26758ZM36.75 49.2676C36.75 52.8631 33.618 56.0176 30.0653 56.0176C26.5125 56.0176 23.25 52.8631 23.25 49.2676H36.75Z" fill="black"/>
</g>
<g clip-path="url(#clip1_392_2822)">
<path d="M32.2127 5.39852V5.39844C32.2149 2.81563 30.1459 0.724023 27.5967 0.724023C25.0475 0.724023 22.9784 2.81564 22.9784 5.39852V5.40514V5.40527H22.8784C22.8807 7.09502 21.9874 8.65877 20.5362 9.50027L32.2127 5.39852ZM32.2127 5.39852V5.40514M32.2127 5.39852V5.40514M32.2127 5.40514V5.40527H32.3127L32.2127 5.40514ZM29.9467 5.12402C29.9467 3.82911 28.894 2.77402 27.5967 2.77402C26.2994 2.77402 25.2467 3.82911 25.2467 5.12402C25.2467 6.42125 26.2994 7.47402 27.5967 7.47402C28.8939 7.47402 29.9467 6.42125 29.9467 5.12402ZM34.2459 47.974C34.1884 51.4735 31.1257 54.524 27.6619 54.524C24.1958 54.524 21.0074 51.4711 20.9475 47.974H34.2459Z" fill="#FFCB66" stroke="black" stroke-width="0.2"/>
</g>
<defs>
<clipPath id="clip0_392_2822">
<rect width="54" height="54" fill="white" transform="translate(3 2.01758)"/>
</clipPath>
<clipPath id="clip1_392_2822">
<rect width="54" height="54" fill="white" transform="translate(0.59668 0.624023)"/>
</clipPath>
</defs>
</svg>
