<svg width="39" height="43" viewBox="0 0 39 43" fill="none" xmlns="http://www.w3.org/2000/svg">
<rect width="50.6959" height="9.55743" rx="4.77871" transform="matrix(0.661233 -0.750181 -0.750181 -0.661233 7.38086 44.5864)" fill="black"/>
<rect x="5.42285" y="0.415527" width="50.6959" height="9.55743" rx="4.77871" transform="rotate(48.606 5.42285 0.415527)" fill="black"/>
<mask id="path-3-inside-1_867_4771" fill="white">
<path fill-rule="evenodd" clip-rule="evenodd" d="M8.58198 2.03446C6.83685 0.0545717 3.81712 -0.135731 1.83724 1.6094C-0.142643 3.35453 -0.332947 6.37426 1.41219 8.35414L12.3034 20.7104L1.40432 33.0756C-0.34081 35.0555 -0.150506 38.0752 1.82938 39.8203C3.80926 41.5655 6.82898 41.3751 8.57412 39.3953L18.6735 27.9374L28.6143 39.2154C30.3594 41.1953 33.3792 41.3856 35.359 39.6405C37.3389 37.8954 37.5292 34.8756 35.7841 32.8957L25.0436 20.7104L35.7762 8.53397C37.5214 6.55409 37.3311 3.53436 35.3512 1.78923C33.3713 0.0440997 30.3516 0.234403 28.6064 2.21429L18.6735 13.4834L8.58198 2.03446Z"/>
</mask>
<path fill-rule="evenodd" clip-rule="evenodd" d="M8.58198 2.03446C6.83685 0.0545717 3.81712 -0.135731 1.83724 1.6094C-0.142643 3.35453 -0.332947 6.37426 1.41219 8.35414L12.3034 20.7104L1.40432 33.0756C-0.34081 35.0555 -0.150506 38.0752 1.82938 39.8203C3.80926 41.5655 6.82898 41.3751 8.57412 39.3953L18.6735 27.9374L28.6143 39.2154C30.3594 41.1953 33.3792 41.3856 35.359 39.6405C37.3389 37.8954 37.5292 34.8756 35.7841 32.8957L25.0436 20.7104L35.7762 8.53397C37.5214 6.55409 37.3311 3.53436 35.3512 1.78923C33.3713 0.0440997 30.3516 0.234403 28.6064 2.21429L18.6735 13.4834L8.58198 2.03446Z" fill="#CE7677"/>
<path d="M1.83724 1.6094L1.17601 0.859221L1.83724 1.6094ZM8.58198 2.03446L9.33216 1.37322L9.33216 1.37322L8.58198 2.03446ZM1.41219 8.35414L0.662005 9.01537L1.41219 8.35414ZM12.3034 20.7104L13.0536 21.3716L13.6364 20.7104L13.0536 20.0492L12.3034 20.7104ZM1.40432 33.0756L0.654142 32.4143L0.654142 32.4143L1.40432 33.0756ZM1.82938 39.8203L1.16814 40.5705L1.82938 39.8203ZM8.57412 39.3953L9.3243 40.0565L9.3243 40.0565L8.57412 39.3953ZM18.6735 27.9374L19.4236 27.2761L18.6735 26.425L17.9233 27.2761L18.6735 27.9374ZM28.6143 39.2154L27.8641 39.8767L27.8641 39.8767L28.6143 39.2154ZM35.359 39.6405L34.6978 38.8903L34.6978 38.8903L35.359 39.6405ZM35.7841 32.8957L36.5343 32.2345L36.5343 32.2345L35.7841 32.8957ZM25.0436 20.7104L24.2934 20.0492L23.7105 20.7104L24.2934 21.3716L25.0436 20.7104ZM35.7762 8.53397L35.0261 7.87274L35.0261 7.87274L35.7762 8.53397ZM35.3512 1.78923L34.69 2.53941L34.69 2.53941L35.3512 1.78923ZM28.6064 2.21429L29.3566 2.87552L29.3566 2.87552L28.6064 2.21429ZM18.6735 13.4834L17.9233 14.1447L18.6735 14.9958L19.4236 14.1447L18.6735 13.4834ZM2.49847 2.35958C4.06404 0.979638 6.45186 1.13012 7.8318 2.69569L9.33216 1.37322C7.22184 -1.02097 3.57021 -1.2511 1.17601 0.859221L2.49847 2.35958ZM2.16237 7.69291C0.782423 6.12734 0.932903 3.73953 2.49847 2.35958L1.17601 0.859221C-1.21819 2.96954 -1.44832 6.62118 0.662005 9.01537L2.16237 7.69291ZM13.0536 20.0492L2.16237 7.69291L0.662005 9.01537L11.5532 21.3716L13.0536 20.0492ZM11.5532 20.0492L0.654142 32.4143L2.1545 33.7368L13.0536 21.3716L11.5532 20.0492ZM0.654142 32.4143C-1.45618 34.8085 -1.22605 38.4602 1.16814 40.5705L2.49061 39.0701C0.92504 37.6902 0.77456 35.3024 2.1545 33.7368L0.654142 32.4143ZM1.16814 40.5705C3.56234 42.6808 7.21398 42.4507 9.3243 40.0565L7.82394 38.734C6.44399 40.2996 4.05618 40.4501 2.49061 39.0701L1.16814 40.5705ZM9.3243 40.0565L19.4236 28.5986L17.9233 27.2761L7.82394 38.734L9.3243 40.0565ZM29.3645 38.5542L19.4236 27.2761L17.9233 28.5986L27.8641 39.8767L29.3645 38.5542ZM34.6978 38.8903C33.1322 40.2703 30.7444 40.1198 29.3645 38.5542L27.8641 39.8767C29.9744 42.2709 33.6261 42.501 36.0203 40.3907L34.6978 38.8903ZM35.0339 33.557C36.4139 35.1226 36.2634 37.5104 34.6978 38.8903L36.0203 40.3907C38.4145 38.2803 38.6446 34.6287 36.5343 32.2345L35.0339 33.557ZM24.2934 21.3716L35.0339 33.557L36.5343 32.2345L25.7937 20.0492L24.2934 21.3716ZM25.7937 21.3716L36.5264 9.19521L35.0261 7.87274L24.2934 20.0492L25.7937 21.3716ZM36.5264 9.19521C38.6367 6.80101 38.4066 3.14937 36.0124 1.03905L34.69 2.53941C36.2555 3.91936 36.406 6.30717 35.0261 7.87274L36.5264 9.19521ZM36.0124 1.03905C33.6182 -1.07127 29.9666 -0.841144 27.8563 1.55305L29.3566 2.87552C30.7366 1.30995 33.1244 1.15947 34.69 2.53941L36.0124 1.03905ZM27.8563 1.55305L17.9233 12.8222L19.4236 14.1447L29.3566 2.87552L27.8563 1.55305ZM7.8318 2.69569L17.9233 14.1447L19.4236 12.8222L9.33216 1.37322L7.8318 2.69569Z" fill="black" mask="url(#path-3-inside-1_867_4771)"/>
</svg>
