<svg width="39" height="44" viewBox="0 0 39 44" fill="none" xmlns="http://www.w3.org/2000/svg">
<rect width="50.6959" height="9.55743" rx="4.77871" transform="matrix(0.661233 -0.750181 -0.750181 -0.661233 7.16992 44.8779)" fill="black"/>
<rect x="5.21191" y="0.707031" width="50.6959" height="9.55743" rx="4.77871" transform="rotate(48.606 5.21191 0.707031)" fill="black"/>
<mask id="path-3-inside-1_390_2748" fill="white">
<path fill-rule="evenodd" clip-rule="evenodd" d="M8.37055 2.32596C6.62542 0.346076 3.6057 0.155772 1.62582 1.90091C-0.354069 3.64604 -0.544372 6.66576 1.20076 8.64565L12.092 21.0019L1.1929 33.3671C-0.552235 35.347 -0.361932 38.3667 1.61795 40.1118C3.59784 41.857 6.61756 41.6666 8.36269 39.6868L18.462 28.2289L28.4029 39.5069C30.148 41.4868 33.1677 41.6771 35.1476 39.932C37.1275 38.1869 37.3178 35.1671 35.5727 33.1872L24.8321 21.0019L35.5648 8.82548C37.3099 6.84559 37.1196 3.82587 35.1398 2.08074C33.1599 0.335604 30.1402 0.525907 28.395 2.50579L18.462 13.7749L8.37055 2.32596Z"/>
</mask>
<path fill-rule="evenodd" clip-rule="evenodd" d="M8.37055 2.32596C6.62542 0.346076 3.6057 0.155772 1.62582 1.90091C-0.354069 3.64604 -0.544372 6.66576 1.20076 8.64565L12.092 21.0019L1.1929 33.3671C-0.552235 35.347 -0.361932 38.3667 1.61795 40.1118C3.59784 41.857 6.61756 41.6666 8.36269 39.6868L18.462 28.2289L28.4029 39.5069C30.148 41.4868 33.1677 41.6771 35.1476 39.932C37.1275 38.1869 37.3178 35.1671 35.5727 33.1872L24.8321 21.0019L35.5648 8.82548C37.3099 6.84559 37.1196 3.82587 35.1398 2.08074C33.1599 0.335604 30.1402 0.525907 28.395 2.50579L18.462 13.7749L8.37055 2.32596Z" fill="#CE7677"/>
<path d="M1.62582 1.90091L0.964582 1.15072L1.62582 1.90091ZM8.37055 2.32596L9.12074 1.66473V1.66473L8.37055 2.32596ZM1.20076 8.64565L0.45058 9.30688L1.20076 8.64565ZM12.092 21.0019L12.8421 21.6631L13.425 21.0019L12.8421 20.3407L12.092 21.0019ZM1.1929 33.3671L0.442717 32.7058H0.442716L1.1929 33.3671ZM1.61795 40.1118L0.956719 40.862L1.61795 40.1118ZM8.36269 39.6868L9.11287 40.348H9.11287L8.36269 39.6868ZM18.462 28.2289L19.2122 27.5676L18.462 26.7166L17.7119 27.5676L18.462 28.2289ZM28.4029 39.5069L27.6527 40.1682H27.6527L28.4029 39.5069ZM35.1476 39.932L34.4864 39.1818L35.1476 39.932ZM35.5727 33.1872L36.3229 32.526L35.5727 33.1872ZM24.8321 21.0019L24.0819 20.3407L23.4991 21.0019L24.0819 21.6631L24.8321 21.0019ZM35.5648 8.82548L34.8146 8.16424L35.5648 8.82548ZM35.1398 2.08074L34.4785 2.83092L35.1398 2.08074ZM28.395 2.50579L29.1452 3.16702V3.16702L28.395 2.50579ZM18.462 13.7749L17.7119 14.4362L18.462 15.2873L19.2122 14.4362L18.462 13.7749ZM2.28705 2.65109C3.85262 1.27114 6.24043 1.42162 7.62037 2.98719L9.12074 1.66473C7.01041 -0.729471 3.35878 -0.959597 0.964582 1.15072L2.28705 2.65109ZM1.95094 7.98441C0.570997 6.41884 0.721477 4.03103 2.28705 2.65109L0.964582 1.15072C-1.42962 3.26105 -1.65974 6.91268 0.45058 9.30688L1.95094 7.98441ZM12.8421 20.3407L1.95094 7.98441L0.45058 9.30688L11.3418 21.6631L12.8421 20.3407ZM11.3418 20.3407L0.442717 32.7058L1.94308 34.0283L12.8421 21.6631L11.3418 20.3407ZM0.442716 32.7058C-1.6676 35.1 -1.43748 38.7517 0.956719 40.862L2.27918 39.3616C0.713614 37.9817 0.563134 35.5939 1.94308 34.0283L0.442716 32.7058ZM0.956719 40.862C3.35092 42.9723 7.00255 42.7422 9.11287 40.348L7.61251 39.0255C6.23257 40.5911 3.84476 40.7416 2.27918 39.3616L0.956719 40.862ZM9.11287 40.348L19.2122 28.8901L17.7119 27.5676L7.61251 39.0255L9.11287 40.348ZM29.1531 38.8457L19.2122 27.5676L17.7119 28.8901L27.6527 40.1682L29.1531 38.8457ZM34.4864 39.1818C32.9208 40.5618 30.533 40.4113 29.1531 38.8457L27.6527 40.1682C29.763 42.5624 33.4147 42.7925 35.8089 40.6822L34.4864 39.1818ZM34.8225 33.8485C36.2024 35.4141 36.052 37.8019 34.4864 39.1818L35.8089 40.6822C38.2031 38.5719 38.4332 34.9202 36.3229 32.526L34.8225 33.8485ZM24.0819 21.6631L34.8225 33.8485L36.3229 32.526L25.5823 20.3407L24.0819 21.6631ZM25.5823 21.6631L36.315 9.48671L34.8146 8.16424L24.0819 20.3407L25.5823 21.6631ZM36.315 9.48671C38.4253 7.09251 38.1952 3.44088 35.801 1.33056L34.4785 2.83092C36.0441 4.21086 36.1946 6.59867 34.8146 8.16424L36.315 9.48671ZM35.801 1.33056C33.4068 -0.779766 29.7552 -0.54964 27.6448 1.84456L29.1452 3.16702C30.5251 1.60145 32.913 1.45097 34.4785 2.83092L35.801 1.33056ZM27.6448 1.84456L17.7119 13.1137L19.2122 14.4362L29.1452 3.16702L27.6448 1.84456ZM7.62037 2.98719L17.7119 14.4362L19.2122 13.1137L9.12074 1.66473L7.62037 2.98719Z" fill="black" mask="url(#path-3-inside-1_390_2748)"/>
</svg>
