<svg width="68" height="69" viewBox="0 0 68 69" fill="none" xmlns="http://www.w3.org/2000/svg">
<circle cx="34" cy="34.8057" r="34" fill="#96B9A0"/>
<path d="M48.5323 20.2997C43.3639 20.2997 49.0287 27.5665 50.768 23.6532C51.1585 22.7744 50.4639 19.2909 49.0788 20.399C47.2628 21.8518 47.7991 22.9825 49.8737 22.9825" stroke="black" stroke-width="3" stroke-linecap="round"/>
<path d="M10.0782 27.0067C4.90983 27.0067 10.5746 34.2735 12.3139 30.3602C12.7044 29.4814 12.0098 25.998 10.6247 27.1061C8.80867 28.5589 9.34504 29.6895 11.4196 29.6895" stroke="black" stroke-width="3" stroke-linecap="round"/>
<path d="M3.37109 34.5696C5.20288 34.5696 6.87734 35.4639 8.73668 35.4639C12.2872 35.4639 15.7087 35.911 19.2443 35.911C25.2797 35.911 30.8844 35.1264 36.5582 33.0295C43.83 30.3421 52.7926 28.0728 58.3684 22.4971" stroke="black" stroke-width="3" stroke-linecap="round"/>
</svg>
