<svg width="45" height="56" viewBox="0 0 62 86" fill="none" xmlns="http://www.w3.org/2000/svg">
<mask id="path-1-inside-1_390_2975" fill="white">
<path fill-rule="evenodd" clip-rule="evenodd" d="M14.3885 6.69461C14.3885 3.34084 17.1073 0.62207 20.4611 0.62207C23.8148 0.62207 26.5336 3.34084 26.5336 6.69461V37.6862C27.2135 37.9504 27.8809 38.2396 28.5346 38.5528V13.5558C28.5346 10.202 31.2534 7.48321 34.6071 7.48321C37.9609 7.48321 40.6797 10.202 40.6797 13.5558V49.3345C40.6797 49.3971 40.6787 49.4595 40.6769 49.5217C41.6927 51.1829 42.5447 52.9553 43.2103 54.8163L47.8992 49.0432C50.0136 46.4399 53.8381 46.0436 56.4414 48.158C59.0447 50.2724 59.441 54.0968 57.3266 56.7001L42.2196 75.3C41.8937 75.7012 41.5272 76.05 41.1308 76.3453C38.017 80.2104 33.2449 82.6833 27.8951 82.6833H12.2601C5.62224 82.6833 0.241211 77.3023 0.241211 70.6645V51.6263C0.241211 51.0159 0.275637 50.4137 0.342652 49.8213C0.276031 49.461 0.241211 49.0896 0.241211 48.7101V22.4504C0.241211 19.0966 2.95998 16.3779 6.31375 16.3779C9.66753 16.3779 12.3863 19.0966 12.3863 22.4504V36.1864C13.0389 36.029 13.7073 35.9119 14.3885 35.8379V6.69461Z"/>
</mask>
<path fill-rule="evenodd" clip-rule="evenodd" d="M14.3885 6.69461C14.3885 3.34084 17.1073 0.62207 20.4611 0.62207C23.8148 0.62207 26.5336 3.34084 26.5336 6.69461V37.6862C27.2135 37.9504 27.8809 38.2396 28.5346 38.5528V13.5558C28.5346 10.202 31.2534 7.48321 34.6071 7.48321C37.9609 7.48321 40.6797 10.202 40.6797 13.5558V49.3345C40.6797 49.3971 40.6787 49.4595 40.6769 49.5217C41.6927 51.1829 42.5447 52.9553 43.2103 54.8163L47.8992 49.0432C50.0136 46.4399 53.8381 46.0436 56.4414 48.158C59.0447 50.2724 59.441 54.0968 57.3266 56.7001L42.2196 75.3C41.8937 75.7012 41.5272 76.05 41.1308 76.3453C38.017 80.2104 33.2449 82.6833 27.8951 82.6833H12.2601C5.62224 82.6833 0.241211 77.3023 0.241211 70.6645V51.6263C0.241211 51.0159 0.275637 50.4137 0.342652 49.8213C0.276031 49.461 0.241211 49.0896 0.241211 48.7101V22.4504C0.241211 19.0966 2.95998 16.3779 6.31375 16.3779C9.66753 16.3779 12.3863 19.0966 12.3863 22.4504V36.1864C13.0389 36.029 13.7073 35.9119 14.3885 35.8379V6.69461Z" fill="#FFCB66"/>
<path d="M26.5336 37.6862H25.5336V38.3706L26.1715 38.6184L26.5336 37.6862ZM28.5346 38.5528L28.1025 39.4546L29.5346 40.1408V38.5528H28.5346ZM40.6769 49.5217L39.6773 49.4914L39.6683 49.7892L39.8237 50.0433L40.6769 49.5217ZM43.2103 54.8163L42.2687 55.1531L42.8668 56.8253L43.9865 55.4467L43.2103 54.8163ZM47.8992 49.0432L47.123 48.4127L47.8992 49.0432ZM56.4414 48.158L55.8109 48.9342L56.4414 48.158ZM57.3266 56.7001L56.5503 56.0697L57.3266 56.7001ZM42.2196 75.3L42.9959 75.9304L42.9959 75.9304L42.2196 75.3ZM41.1308 76.3453L40.5335 75.5433L40.4317 75.6191L40.3521 75.7179L41.1308 76.3453ZM0.342652 49.8213L1.33631 49.9337L1.35304 49.7858L1.32598 49.6394L0.342652 49.8213ZM12.3863 36.1864H11.3863V37.4562L12.6207 37.1585L12.3863 36.1864ZM14.3885 35.8379L14.4965 36.832L15.3885 36.7351V35.8379H14.3885ZM20.4611 -0.37793C16.555 -0.37793 13.3885 2.78856 13.3885 6.69461H15.3885C15.3885 3.89313 17.6596 1.62207 20.4611 1.62207V-0.37793ZM27.5336 6.69461C27.5336 2.78855 24.3671 -0.37793 20.4611 -0.37793V1.62207C23.2626 1.62207 25.5336 3.89312 25.5336 6.69461H27.5336ZM27.5336 37.6862V6.69461H25.5336V37.6862H27.5336ZM26.1715 38.6184C26.8276 38.8733 27.4716 39.1524 28.1025 39.4546L28.9667 37.651C28.2902 37.3268 27.5994 37.0275 26.8957 36.7541L26.1715 38.6184ZM29.5346 38.5528V13.5558H27.5346V38.5528H29.5346ZM29.5346 13.5558C29.5346 10.7543 31.8057 8.48321 34.6071 8.48321V6.48321C30.7011 6.48321 27.5346 9.6497 27.5346 13.5558H29.5346ZM34.6071 8.48321C37.4086 8.48321 39.6797 10.7543 39.6797 13.5558H41.6797C41.6797 9.6497 38.5132 6.48321 34.6071 6.48321V8.48321ZM39.6797 13.5558V49.3345H41.6797V13.5558H39.6797ZM39.6797 49.3345C39.6797 49.3871 39.6789 49.4393 39.6773 49.4914L41.6764 49.5519C41.6786 49.4797 41.6797 49.4072 41.6797 49.3345H39.6797ZM39.8237 50.0433C40.8042 51.6468 41.6264 53.3573 42.2687 55.1531L44.1519 54.4795C43.4629 52.5533 42.5812 50.719 41.53 49L39.8237 50.0433ZM47.123 48.4127L42.4341 54.1858L43.9865 55.4467L48.6755 49.6736L47.123 48.4127ZM57.0718 47.3818C54.0398 44.9192 49.5856 45.3807 47.123 48.4127L48.6755 49.6736C50.4417 47.499 53.6363 47.168 55.8109 48.9342L57.0718 47.3818ZM58.1028 57.3306C60.5654 54.2986 60.1038 49.8444 57.0718 47.3818L55.8109 48.9342C57.9855 50.7004 58.3166 53.8951 56.5503 56.0697L58.1028 57.3306ZM42.9959 75.9304L58.1028 57.3306L56.5503 56.0697L41.4434 74.6695L42.9959 75.9304ZM41.7282 77.1473C42.1905 76.8029 42.6173 76.3966 42.9959 75.9304L41.4434 74.6695C41.1702 75.0059 40.8639 75.2972 40.5335 75.5433L41.7282 77.1473ZM40.3521 75.7179C37.4199 79.3575 32.9295 81.6833 27.8951 81.6833V83.6833C33.5602 83.6833 38.6141 81.0633 41.9095 76.9727L40.3521 75.7179ZM27.8951 81.6833H12.2601V83.6833H27.8951V81.6833ZM12.2601 81.6833C6.17452 81.6833 1.24121 76.75 1.24121 70.6645H-0.758789C-0.758789 77.8546 5.06996 83.6833 12.2601 83.6833V81.6833ZM1.24121 70.6645V51.6263H-0.758789V70.6645H1.24121ZM1.24121 51.6263C1.24121 51.0536 1.27351 50.4888 1.33631 49.9337L-0.651011 49.7089C-0.722239 50.3385 -0.758789 50.9783 -0.758789 51.6263H1.24121ZM-0.758789 48.7101C-0.758789 49.1509 -0.718335 49.5832 -0.640677 50.0031L1.32598 49.6394C1.2704 49.3389 1.24121 49.0283 1.24121 48.7101H-0.758789ZM-0.758789 22.4504V48.7101H1.24121V22.4504H-0.758789ZM6.31375 15.3779C2.4077 15.3779 -0.758789 18.5443 -0.758789 22.4504H1.24121C1.24121 19.6489 3.51226 17.3779 6.31375 17.3779V15.3779ZM13.3863 22.4504C13.3863 18.5444 10.2198 15.3779 6.31375 15.3779V17.3779C9.11524 17.3779 11.3863 19.6489 11.3863 22.4504H13.3863ZM13.3863 36.1864V22.4504H11.3863V36.1864H13.3863ZM12.6207 37.1585C13.232 37.0111 13.8581 36.9014 14.4965 36.832L14.2805 34.8437C13.5564 34.9224 12.8459 35.0469 12.1519 35.2142L12.6207 37.1585ZM13.3885 6.69461V35.8379H15.3885V6.69461H13.3885Z" fill="black" mask="url(#path-1-inside-1_390_2975)"/>
</svg>
