<svg width="45" height="56" viewBox="0 0 62 86" fill="none" xmlns="http://www.w3.org/2000/svg">
<path fill-rule="evenodd" clip-rule="evenodd" d="M17.9239 9.81668C17.9239 6.46291 20.6427 3.74414 23.9965 3.74414C27.3502 3.74414 30.069 6.46291 30.069 9.81668V41.0593C30.5342 41.2528 30.9933 41.4581 31.4457 41.6749V16.6778C31.4457 13.3241 34.1645 10.6053 37.5183 10.6053C40.872 10.6053 43.5908 13.3241 43.5908 16.6778V52.4566C43.5908 52.5192 43.5899 52.5816 43.588 52.6437C44.6038 54.305 45.4558 56.0774 46.1214 57.9384L50.8104 52.1652C52.9248 49.562 56.7492 49.1657 59.3525 51.2801C61.9558 53.3945 62.3521 57.2189 60.2377 59.8222L45.1308 78.4221C44.8049 78.8233 44.4384 79.1721 44.0419 79.4674C40.9281 83.3325 36.156 85.8054 30.8063 85.8054H15.1712C8.53337 85.8054 3.15234 80.4244 3.15234 73.7866V54.7483C3.15234 54.138 3.18677 53.5358 3.25378 52.9434C3.18716 52.5831 3.15234 52.2117 3.15234 51.8321V25.5725C3.15234 22.2187 5.87111 19.4999 9.22489 19.4999C12.5787 19.4999 15.2974 22.2187 15.2974 25.5725V39.3084C16.1483 39.1032 17.0258 38.9665 17.9239 38.9045V9.81668Z" fill="black"/>
<mask id="path-2-inside-1_390_2989" fill="white">
<path fill-rule="evenodd" clip-rule="evenodd" d="M14.1786 6.69461C14.1786 3.34084 16.8973 0.62207 20.2511 0.62207C23.6049 0.62207 26.3236 3.34084 26.3236 6.69461V37.6862C27.0036 37.9504 27.6709 38.2396 28.3246 38.5528V13.5558C28.3246 10.202 31.0434 7.48321 34.3972 7.48321C37.751 7.48321 40.4697 10.202 40.4697 13.5558V49.3345C40.4697 49.3971 40.4688 49.4595 40.4669 49.5217C41.4827 51.1829 42.3347 52.9553 43.0003 54.8163L47.6893 49.0432C49.8037 46.4399 53.6281 46.0436 56.2314 48.158C58.8347 50.2724 59.231 54.0968 57.1166 56.7001L42.0097 75.3C41.6838 75.7012 41.3173 76.05 40.9209 76.3453C37.807 80.2104 33.0349 82.6833 27.6852 82.6833H12.0501C5.41228 82.6833 0.03125 77.3023 0.03125 70.6645V51.6263C0.03125 51.0159 0.0656758 50.4137 0.132691 49.8213C0.0660703 49.461 0.03125 49.0896 0.03125 48.7101V22.4504C0.03125 19.0966 2.75002 16.3779 6.10379 16.3779C9.45757 16.3779 12.1763 19.0966 12.1763 22.4504V36.1864C12.829 36.029 13.4973 35.9119 14.1786 35.8379V6.69461Z"/>
</mask>
<path fill-rule="evenodd" clip-rule="evenodd" d="M14.1786 6.69461C14.1786 3.34084 16.8973 0.62207 20.2511 0.62207C23.6049 0.62207 26.3236 3.34084 26.3236 6.69461V37.6862C27.0036 37.9504 27.6709 38.2396 28.3246 38.5528V13.5558C28.3246 10.202 31.0434 7.48321 34.3972 7.48321C37.751 7.48321 40.4697 10.202 40.4697 13.5558V49.3345C40.4697 49.3971 40.4688 49.4595 40.4669 49.5217C41.4827 51.1829 42.3347 52.9553 43.0003 54.8163L47.6893 49.0432C49.8037 46.4399 53.6281 46.0436 56.2314 48.158C58.8347 50.2724 59.231 54.0968 57.1166 56.7001L42.0097 75.3C41.6838 75.7012 41.3173 76.05 40.9209 76.3453C37.807 80.2104 33.0349 82.6833 27.6852 82.6833H12.0501C5.41228 82.6833 0.03125 77.3023 0.03125 70.6645V51.6263C0.03125 51.0159 0.0656758 50.4137 0.132691 49.8213C0.0660703 49.461 0.03125 49.0896 0.03125 48.7101V22.4504C0.03125 19.0966 2.75002 16.3779 6.10379 16.3779C9.45757 16.3779 12.1763 19.0966 12.1763 22.4504V36.1864C12.829 36.029 13.4973 35.9119 14.1786 35.8379V6.69461Z" fill="#FFCB66"/>
<path d="M26.3236 37.6862H25.3236V38.3706L25.9615 38.6184L26.3236 37.6862ZM28.3246 38.5528L27.8925 39.4546L29.3246 40.1408V38.5528H28.3246ZM40.4669 49.5217L39.4674 49.4914L39.4583 49.7892L39.6138 50.0433L40.4669 49.5217ZM43.0003 54.8163L42.0587 55.1531L42.6569 56.8253L43.7766 55.4467L43.0003 54.8163ZM47.6893 49.0432L46.9131 48.4127L47.6893 49.0432ZM56.2314 48.158L55.601 48.9342L56.2314 48.158ZM57.1166 56.7001L56.3404 56.0697L57.1166 56.7001ZM42.0097 75.3L42.7859 75.9304L42.7859 75.9304L42.0097 75.3ZM40.9209 76.3453L40.3235 75.5433L40.2217 75.6191L40.1421 75.7179L40.9209 76.3453ZM0.132691 49.8213L1.12635 49.9337L1.14308 49.7858L1.11602 49.6394L0.132691 49.8213ZM12.1763 36.1864H11.1763V37.4562L12.4108 37.1585L12.1763 36.1864ZM14.1786 35.8379L14.2866 36.832L15.1786 36.7351V35.8379H14.1786ZM20.2511 -0.37793C16.345 -0.37793 13.1786 2.78856 13.1786 6.69461H15.1786C15.1786 3.89313 17.4496 1.62207 20.2511 1.62207V-0.37793ZM27.3236 6.69461C27.3236 2.78855 24.1572 -0.37793 20.2511 -0.37793V1.62207C23.0526 1.62207 25.3236 3.89312 25.3236 6.69461H27.3236ZM27.3236 37.6862V6.69461H25.3236V37.6862H27.3236ZM25.9615 38.6184C26.6176 38.8733 27.2617 39.1524 27.8925 39.4546L28.7567 37.651C28.0802 37.3268 27.3895 37.0275 26.6858 36.7541L25.9615 38.6184ZM29.3246 38.5528V13.5558H27.3246V38.5528H29.3246ZM29.3246 13.5558C29.3246 10.7543 31.5957 8.48321 34.3972 8.48321V6.48321C30.4911 6.48321 27.3246 9.6497 27.3246 13.5558H29.3246ZM34.3972 8.48321C37.1987 8.48321 39.4697 10.7543 39.4697 13.5558H41.4697C41.4697 9.6497 38.3032 6.48321 34.3972 6.48321V8.48321ZM39.4697 13.5558V49.3345H41.4697V13.5558H39.4697ZM39.4697 49.3345C39.4697 49.3871 39.4689 49.4393 39.4674 49.4914L41.4664 49.5519C41.4686 49.4797 41.4697 49.4072 41.4697 49.3345H39.4697ZM39.6138 50.0433C40.5943 51.6468 41.4164 53.3573 42.0587 55.1531L43.9419 54.4795C43.2529 52.5533 42.3712 50.719 41.32 49L39.6138 50.0433ZM46.9131 48.4127L42.2241 54.1858L43.7766 55.4467L48.4655 49.6736L46.9131 48.4127ZM56.8619 47.3818C53.8299 44.9192 49.3757 45.3807 46.9131 48.4127L48.4655 49.6736C50.2317 47.499 53.4264 47.168 55.601 48.9342L56.8619 47.3818ZM57.8928 57.3306C60.3554 54.2986 59.8938 49.8444 56.8619 47.3818L55.601 48.9342C57.7755 50.7004 58.1066 53.8951 56.3404 56.0697L57.8928 57.3306ZM42.7859 75.9304L57.8928 57.3306L56.3404 56.0697L41.2335 74.6695L42.7859 75.9304ZM41.5182 77.1473C41.9806 76.8029 42.4073 76.3966 42.7859 75.9304L41.2335 74.6695C40.9603 75.0059 40.6539 75.2972 40.3235 75.5433L41.5182 77.1473ZM40.1421 75.7179C37.21 79.3575 32.7195 81.6833 27.6852 81.6833V83.6833C33.3503 83.6833 38.4041 81.0633 41.6996 76.9727L40.1421 75.7179ZM27.6852 81.6833H12.0501V83.6833H27.6852V81.6833ZM12.0501 81.6833C5.96456 81.6833 1.03125 76.75 1.03125 70.6645H-0.96875C-0.96875 77.8546 4.85999 83.6833 12.0501 83.6833V81.6833ZM1.03125 70.6645V51.6263H-0.96875V70.6645H1.03125ZM1.03125 51.6263C1.03125 51.0536 1.06355 50.4888 1.12635 49.9337L-0.860972 49.7089C-0.9322 50.3385 -0.96875 50.9783 -0.96875 51.6263H1.03125ZM-0.96875 48.7101C-0.96875 49.1509 -0.928296 49.5832 -0.850637 50.0031L1.11602 49.6394C1.06044 49.3389 1.03125 49.0283 1.03125 48.7101H-0.96875ZM-0.96875 22.4504V48.7101H1.03125V22.4504H-0.96875ZM6.10379 15.3779C2.19774 15.3779 -0.96875 18.5443 -0.96875 22.4504H1.03125C1.03125 19.6489 3.3023 17.3779 6.10379 17.3779V15.3779ZM13.1763 22.4504C13.1763 18.5444 10.0098 15.3779 6.10379 15.3779V17.3779C8.90528 17.3779 11.1763 19.6489 11.1763 22.4504H13.1763ZM13.1763 36.1864V22.4504H11.1763V36.1864H13.1763ZM12.4108 37.1585C13.022 37.0111 13.6481 36.9014 14.2866 36.832L14.0706 34.8437C13.3465 34.9224 12.6359 35.0469 11.9419 35.2142L12.4108 37.1585ZM13.1786 6.69461V35.8379H15.1786V6.69461H13.1786Z" fill="black" mask="url(#path-2-inside-1_390_2989)"/>
</svg>
