<svg width="33" height="32" viewBox="0 0 33 32" fill="none" xmlns="http://www.w3.org/2000/svg">
<g id="Frame" clip-path="url(#clip0_295_2494)">
<path id="Vector" d="M8.17356 12.8621C8.55452 13.7119 8.9528 14.5018 9.34841 15.2371C3.9337 13.4415 0.688875 8.13205 0.193359 2.66406H5.62405C5.672 3.3061 5.73061 3.93615 5.8092 4.53557H2.22737C2.79615 7.20096 4.29069 10.8347 8.17356 12.8621ZM14.3182 21.3125C13.6535 16.055 6.85352 13.0579 6.85352 0H25.502C25.502 13.0579 18.7166 16.055 18.0532 21.3125H14.3182ZM9.98379 2.66406C10.2569 8.85534 12.6345 13.7639 15.7728 17.387C13.2593 13.0446 12.2616 7.48735 12.2469 2.66406H9.98379ZM22.8379 26.1331V31.9688H9.51758V26.1331C12.1031 26.1331 14.0052 24.2243 14.2743 22.6445H18.0919C18.3489 24.2257 20.1765 26.1331 22.8379 26.1331ZM21.5059 27.9727H10.8496V30.6367H21.5059V27.9727ZM26.7314 2.66406C26.6835 3.3061 26.6249 3.93615 26.5463 4.53557H30.1268C29.558 7.20096 28.0634 10.8347 24.1806 12.8621C23.7996 13.7119 23.4013 14.5018 23.0057 15.2371C28.4218 13.4415 31.6666 8.13205 32.1621 2.66406H26.7314Z" fill="#FFCB66"/>
</g>
<defs>
<clipPath id="clip0_295_2494">
<rect width="31.9688" height="31.9688" fill="white" transform="translate(0.193359)"/>
</clipPath>
</defs>
</svg>
