<svg width="58" height="55" viewBox="0 0 58 55" fill="none" xmlns="http://www.w3.org/2000/svg">
<path fill-rule="evenodd" clip-rule="evenodd" d="M22.1344 11.2923L21.6798 3.00119L25.8986 2.72339C28.6541 2.54194 31.0104 4.63007 31.1615 7.38736L31.4612 12.8522C31.5162 13.8555 31.2466 14.8049 30.744 15.5973C30.5727 16.4007 30.2236 17.1683 29.6918 17.8269L28.2718 19.5853H52.7436C55.2991 19.5853 57.3707 21.6569 57.3707 24.2124C57.3707 26.7679 55.2991 28.8395 52.7436 28.8395H52.4874C53.7342 29.6685 54.5559 31.086 54.5559 32.6955C54.5559 35.251 52.4843 37.3226 49.9288 37.3226H49.6726C50.9194 38.1516 51.7411 39.5691 51.7411 41.1786C51.7411 43.7341 49.6695 45.8057 47.114 45.8057H46.8578C48.1046 46.6347 48.9263 48.0522 48.9263 49.6617C48.9263 52.2172 46.8546 54.2888 44.2991 54.2888H38.4511C38.3023 54.2999 38.152 54.3055 38.0004 54.3055H19.0374C17.3427 54.3055 15.8121 53.6029 14.721 52.4731C13.8041 53.5917 12.4115 54.3055 10.8522 54.3055H8.18555C5.42413 54.3055 3.18555 52.0669 3.18555 49.3055V24.6019C3.18555 21.8405 5.42412 19.6019 8.18555 19.6019H10.8522C12.1918 19.6019 13.4083 20.1287 14.3059 20.9864L22.1344 11.2923Z" fill="black"/>
<path fill-rule="evenodd" clip-rule="evenodd" d="M22.1344 11.2923L21.6798 3.00119L25.8986 2.72339C28.6541 2.54194 31.0104 4.63007 31.1615 7.38736L31.4612 12.8522C31.5162 13.8555 31.2466 14.8049 30.744 15.5973C30.5727 16.4007 30.2236 17.1683 29.6918 17.8269L28.2718 19.5853H52.7436C55.2991 19.5853 57.3707 21.6569 57.3707 24.2124C57.3707 26.7679 55.2991 28.8395 52.7436 28.8395H52.4874C53.7342 29.6685 54.5559 31.086 54.5559 32.6955C54.5559 35.251 52.4843 37.3226 49.9288 37.3226H49.6726C50.9194 38.1516 51.7411 39.5691 51.7411 41.1786C51.7411 43.7341 49.6695 45.8057 47.114 45.8057H46.8578C48.1046 46.6347 48.9263 48.0522 48.9263 49.6617C48.9263 52.2172 46.8546 54.2888 44.2991 54.2888H38.4511C38.3023 54.2999 38.152 54.3055 38.0004 54.3055H19.0374C17.3427 54.3055 15.8121 53.6029 14.721 52.4731C13.8041 53.5917 12.4115 54.3055 10.8522 54.3055H8.18555C5.42413 54.3055 3.18555 52.0669 3.18555 49.3055V24.6019C3.18555 21.8405 5.42412 19.6019 8.18555 19.6019H10.8522C12.1918 19.6019 13.4083 20.1287 14.3059 20.9864L22.1344 11.2923Z" fill="black"/>
<mask id="path-3-inside-1_390_2833" fill="white">
<path fill-rule="evenodd" clip-rule="evenodd" d="M18.8652 0.687709L19.3198 8.97878L11.499 18.6634C10.6006 17.8015 9.38104 17.2718 8.03776 17.2718H5.37109C2.60967 17.2718 0.371094 19.5104 0.371094 22.2718V46.9753C0.371094 49.7368 2.60967 51.9753 5.3711 51.9753H8.03776C9.5928 51.9753 10.982 51.2654 11.8991 50.1521C12.9906 51.2863 14.5243 51.992 16.2227 51.992H35.1857C35.3377 51.992 35.4884 51.9864 35.6375 51.9753H41.4845C44.04 51.9753 46.1116 49.9036 46.1116 47.3481C46.1116 45.7387 45.2899 44.3211 44.0431 43.4922H44.2993C46.8548 43.4922 48.9264 41.4205 48.9264 38.865C48.9264 37.2556 48.1047 35.838 46.858 35.0091H47.1141C49.6696 35.0091 51.7413 32.9374 51.7413 30.3819C51.7413 28.7725 50.9196 27.355 49.6729 26.5261H49.9291C52.4846 26.5261 54.5563 24.4544 54.5563 21.8989C54.5563 19.3434 52.4846 17.2718 49.9291 17.2718H25.4572L26.8772 15.5134C27.409 14.8548 27.758 14.0872 27.9293 13.2838C28.4319 12.4914 28.7015 11.542 28.6465 10.5387L28.3469 5.07388C28.1957 2.3166 25.8394 0.228467 23.084 0.409909L18.8652 0.687709Z"/>
</mask>
<path fill-rule="evenodd" clip-rule="evenodd" d="M18.8652 0.687709L19.3198 8.97878L11.499 18.6634C10.6006 17.8015 9.38104 17.2718 8.03776 17.2718H5.37109C2.60967 17.2718 0.371094 19.5104 0.371094 22.2718V46.9753C0.371094 49.7368 2.60967 51.9753 5.3711 51.9753H8.03776C9.5928 51.9753 10.982 51.2654 11.8991 50.1521C12.9906 51.2863 14.5243 51.992 16.2227 51.992H35.1857C35.3377 51.992 35.4884 51.9864 35.6375 51.9753H41.4845C44.04 51.9753 46.1116 49.9036 46.1116 47.3481C46.1116 45.7387 45.2899 44.3211 44.0431 43.4922H44.2993C46.8548 43.4922 48.9264 41.4205 48.9264 38.865C48.9264 37.2556 48.1047 35.838 46.858 35.0091H47.1141C49.6696 35.0091 51.7413 32.9374 51.7413 30.3819C51.7413 28.7725 50.9196 27.355 49.6729 26.5261H49.9291C52.4846 26.5261 54.5563 24.4544 54.5563 21.8989C54.5563 19.3434 52.4846 17.2718 49.9291 17.2718H25.4572L26.8772 15.5134C27.409 14.8548 27.758 14.0872 27.9293 13.2838C28.4319 12.4914 28.7015 11.542 28.6465 10.5387L28.3469 5.07388C28.1957 2.3166 25.8394 0.228467 23.084 0.409909L18.8652 0.687709Z" fill="#FFCB66"/>
<path d="M19.3198 8.97878L20.0978 9.60705L20.3393 9.30793L20.3183 8.92403L19.3198 8.97878ZM18.8652 0.687709L18.7995 -0.31013L17.8125 -0.245141L17.8667 0.742455L18.8652 0.687709ZM11.499 18.6634L10.8066 19.385L11.5926 20.1391L12.277 19.2917L11.499 18.6634ZM11.8991 50.1521L12.6196 49.4586L11.841 48.6496L11.1272 49.5163L11.8991 50.1521ZM35.6375 51.9753V50.9753H35.6003L35.5633 50.978L35.6375 51.9753ZM44.0431 43.4922V42.4922H40.733L43.4895 44.3249L44.0431 43.4922ZM46.858 35.0091V34.0091H43.5478L46.3043 35.8418L46.858 35.0091ZM49.6729 26.5261V25.5261H46.3629L49.1192 27.3588L49.6729 26.5261ZM25.4572 17.2718L24.6792 16.6435L23.3643 18.2718H25.4572V17.2718ZM26.8772 15.5134L26.0992 14.8851V14.8851L26.8772 15.5134ZM27.9293 13.2838L27.0849 12.7482L26.9887 12.8998L26.9513 13.0753L27.9293 13.2838ZM28.6465 10.5387L29.645 10.484L28.6465 10.5387ZM28.3469 5.07388L29.3454 5.01913L28.3469 5.07388ZM23.084 0.409909L23.0182 -0.58793L23.084 0.409909ZM20.3183 8.92403L19.8637 0.632964L17.8667 0.742455L18.3213 9.03352L20.3183 8.92403ZM12.277 19.2917L20.0978 9.60705L18.5418 8.35051L10.721 18.0352L12.277 19.2917ZM8.03776 18.2718C9.1128 18.2718 10.087 18.6946 10.8066 19.385L12.1913 17.9419C11.1142 16.9084 9.64929 16.2718 8.03776 16.2718V18.2718ZM5.37109 18.2718H8.03776V16.2718H5.37109V18.2718ZM1.37109 22.2718C1.37109 20.0626 3.16195 18.2718 5.37109 18.2718V16.2718C2.05739 16.2718 -0.628906 18.9581 -0.628906 22.2718H1.37109ZM1.37109 46.9753V22.2718H-0.628906V46.9753H1.37109ZM5.3711 50.9753C3.16196 50.9753 1.37109 49.1845 1.37109 46.9753H-0.628906C-0.628906 50.289 2.05739 52.9753 5.3711 52.9753V50.9753ZM8.03776 50.9753H5.3711V52.9753H8.03776V50.9753ZM11.1272 49.5163C10.392 50.4089 9.28143 50.9753 8.03776 50.9753V52.9753C9.90418 52.9753 11.5721 52.122 12.671 50.7878L11.1272 49.5163ZM16.2227 50.992C14.8072 50.992 13.5305 50.4051 12.6196 49.4586L11.1786 50.8455C12.4508 52.1675 14.2414 52.992 16.2227 52.992V50.992ZM35.1857 50.992H16.2227V52.992H35.1857V50.992ZM35.5633 50.978C35.4388 50.9873 35.3129 50.992 35.1857 50.992V52.992C35.3625 52.992 35.5379 52.9854 35.7118 52.9725L35.5633 50.978ZM41.4845 50.9753H35.6375V52.9753H41.4845V50.9753ZM45.1116 47.3481C45.1116 49.3513 43.4877 50.9753 41.4845 50.9753V52.9753C44.5923 52.9753 47.1116 50.4559 47.1116 47.3481H45.1116ZM43.4895 44.3249C44.4693 44.9764 45.1116 46.0875 45.1116 47.3481H47.1116C47.1116 45.3899 46.1105 43.6659 44.5968 42.6594L43.4895 44.3249ZM44.2993 42.4922H44.0431V44.4922H44.2993V42.4922ZM47.9264 38.865C47.9264 40.8682 46.3025 42.4922 44.2993 42.4922V44.4922C47.4071 44.4922 49.9264 41.9728 49.9264 38.865H47.9264ZM46.3043 35.8418C47.2841 36.4933 47.9264 37.6044 47.9264 38.865H49.9264C49.9264 36.9068 48.9253 35.1828 47.4116 34.1763L46.3043 35.8418ZM47.1141 34.0091H46.858V36.0091H47.1141V34.0091ZM50.7413 30.3819C50.7413 32.3851 49.1173 34.0091 47.1141 34.0091V36.0091C50.2219 36.0091 52.7413 33.4897 52.7413 30.3819H50.7413ZM49.1192 27.3588C50.099 28.0103 50.7413 29.1213 50.7413 30.3819H52.7413C52.7413 28.4237 51.7402 26.6998 50.2266 25.6933L49.1192 27.3588ZM49.9291 25.5261H49.6729V27.5261H49.9291V25.5261ZM53.5563 21.8989C53.5563 23.9021 51.9324 25.5261 49.9291 25.5261V27.5261C53.0369 27.5261 55.5563 25.0067 55.5563 21.8989H53.5563ZM49.9291 18.2718C51.9324 18.2718 53.5563 19.8957 53.5563 21.8989H55.5563C55.5563 18.7911 53.0369 16.2718 49.9291 16.2718V18.2718ZM25.4572 18.2718H49.9291V16.2718H25.4572V18.2718ZM26.0992 14.8851L24.6792 16.6435L26.2352 17.9L27.6552 16.1417L26.0992 14.8851ZM26.9513 13.0753C26.8107 13.735 26.526 14.3566 26.0992 14.8851L27.6552 16.1417C28.292 15.3531 28.7054 14.4393 28.9073 13.4923L26.9513 13.0753ZM27.648 10.5935C27.6912 11.3807 27.4802 12.1249 27.0849 12.7482L28.7738 13.8195C29.3836 12.858 29.7119 11.7032 29.645 10.484L27.648 10.5935ZM27.3484 5.12862L27.648 10.5935L29.645 10.484L29.3454 5.01913L27.3484 5.12862ZM23.1497 1.40775C25.3497 1.26288 27.2277 2.92709 27.3484 5.12862L29.3454 5.01913C29.1637 1.70611 26.3291 -0.805943 23.0182 -0.58793L23.1497 1.40775ZM18.9309 1.68555L23.1497 1.40775L23.0182 -0.58793L18.7995 -0.31013L18.9309 1.68555Z" fill="black" mask="url(#path-3-inside-1_390_2833)"/>
</svg>
