<svg width="55" height="52" viewBox="0 0 55 52" fill="none" xmlns="http://www.w3.org/2000/svg">
<mask id="path-1-inside-1_390_2832" fill="white">
<path fill-rule="evenodd" clip-rule="evenodd" d="M19.1897 0.68268L19.6427 8.86364L11.8378 18.4329C10.94 17.5741 9.72271 17.0465 8.38217 17.0465H5.75879C2.99737 17.0465 0.758789 19.2851 0.758789 22.0465V46.2892C0.758789 49.0506 2.99736 51.2892 5.75879 51.2892H8.38216C9.93977 51.2892 11.331 50.5769 12.248 49.4604C13.3399 50.5977 14.8757 51.3056 16.5768 51.3056H35.4339C35.5849 51.3056 35.7345 51.3001 35.8827 51.2891H41.7773C44.2989 51.2891 46.343 49.245 46.343 46.7234C46.343 45.1353 45.5322 43.7366 44.302 42.9187H44.5825C47.1041 42.9187 49.1482 40.8745 49.1482 38.353C49.1482 36.7649 48.3374 35.3662 47.1072 34.5482H47.3877C49.9093 34.5482 51.9534 32.5041 51.9534 29.9825C51.9534 28.3945 51.1426 26.9959 49.9125 26.1779H50.1931C52.7146 26.1779 54.7588 24.1338 54.7588 21.6122C54.7588 19.0906 52.7146 17.0465 50.1931 17.0465H25.7591L27.1622 15.3262C27.7013 14.6653 28.0537 13.8946 28.2242 13.0889C28.7231 12.3004 28.9903 11.3559 28.9351 10.3578L28.6426 5.07675C28.4899 2.31955 26.1323 0.23004 23.3768 0.409695L19.1897 0.68268Z"/>
</mask>
<path fill-rule="evenodd" clip-rule="evenodd" d="M19.1897 0.68268L19.6427 8.86364L11.8378 18.4329C10.94 17.5741 9.72271 17.0465 8.38217 17.0465H5.75879C2.99737 17.0465 0.758789 19.2851 0.758789 22.0465V46.2892C0.758789 49.0506 2.99736 51.2892 5.75879 51.2892H8.38216C9.93977 51.2892 11.331 50.5769 12.248 49.4604C13.3399 50.5977 14.8757 51.3056 16.5768 51.3056H35.4339C35.5849 51.3056 35.7345 51.3001 35.8827 51.2891H41.7773C44.2989 51.2891 46.343 49.245 46.343 46.7234C46.343 45.1353 45.5322 43.7366 44.302 42.9187H44.5825C47.1041 42.9187 49.1482 40.8745 49.1482 38.353C49.1482 36.7649 48.3374 35.3662 47.1072 34.5482H47.3877C49.9093 34.5482 51.9534 32.5041 51.9534 29.9825C51.9534 28.3945 51.1426 26.9959 49.9125 26.1779H50.1931C52.7146 26.1779 54.7588 24.1338 54.7588 21.6122C54.7588 19.0906 52.7146 17.0465 50.1931 17.0465H25.7591L27.1622 15.3262C27.7013 14.6653 28.0537 13.8946 28.2242 13.0889C28.7231 12.3004 28.9903 11.3559 28.9351 10.3578L28.6426 5.07675C28.4899 2.31955 26.1323 0.23004 23.3768 0.409695L19.1897 0.68268Z" fill="#FFCB66"/>
<path d="M19.6427 8.86364L20.4176 9.49568L20.6626 9.19533L20.6412 8.80834L19.6427 8.86364ZM19.1897 0.68268L19.1246 -0.315201L18.1364 -0.250776L18.1912 0.737972L19.1897 0.68268ZM11.8378 18.4329L11.1466 19.1555L11.9287 19.9036L12.6128 19.0649L11.8378 18.4329ZM12.248 49.4604L12.9694 48.7678L12.1897 47.9557L11.4752 48.8257L12.248 49.4604ZM35.8827 51.2891V50.2891H35.8458L35.809 50.2918L35.8827 51.2891ZM44.302 42.9187V41.9187H40.9918L43.7483 43.7514L44.302 42.9187ZM47.1072 34.5482V33.5482H43.797L46.5535 35.381L47.1072 34.5482ZM49.9125 26.1779V25.1779H46.6025L49.3588 27.0106L49.9125 26.1779ZM25.7591 17.0465L24.9842 16.4145L23.6531 18.0465H25.7591V17.0465ZM27.1622 15.3262L27.9372 15.9583L27.1622 15.3262ZM28.2242 13.0889L27.3792 12.5542L27.2831 12.7061L27.2458 12.8819L28.2242 13.0889ZM28.9351 10.3578L27.9366 10.4131V10.4131L28.9351 10.3578ZM28.6426 5.07675L29.6411 5.02146V5.02146L28.6426 5.07675ZM23.3768 0.409695L23.4418 1.40758L23.3768 0.409695ZM20.6412 8.80834L20.1881 0.627389L18.1912 0.737972L18.6442 8.91893L20.6412 8.80834ZM12.6128 19.0649L20.4176 9.49568L18.8678 8.23159L11.0629 17.8008L12.6128 19.0649ZM8.38217 18.0465C9.45502 18.0465 10.4274 18.4676 11.1466 19.1555L12.5291 17.7103C11.4526 16.6806 9.99039 16.0465 8.38217 16.0465V18.0465ZM5.75879 18.0465H8.38217V16.0465H5.75879V18.0465ZM1.75879 22.0465C1.75879 19.8374 3.54965 18.0465 5.75879 18.0465V16.0465C2.44508 16.0465 -0.241211 18.7328 -0.241211 22.0465H1.75879ZM1.75879 46.2892V22.0465H-0.241211V46.2892H1.75879ZM5.75879 50.2892C3.54965 50.2892 1.75879 48.4983 1.75879 46.2892H-0.241211C-0.241211 49.6029 2.44508 52.2892 5.75879 52.2892V50.2892ZM8.38216 50.2892H5.75879V52.2892H8.38216V50.2892ZM11.4752 48.8257C10.74 49.7209 9.62787 50.2892 8.38216 50.2892V52.2892C10.2517 52.2892 11.922 51.433 13.0208 50.0951L11.4752 48.8257ZM16.5768 50.3056C15.159 50.3056 13.8805 49.7169 12.9694 48.7678L11.5267 50.1529C12.7993 51.4785 14.5923 52.3056 16.5768 52.3056V50.3056ZM35.4339 50.3056H16.5768V52.3056H35.4339V50.3056ZM35.809 50.2918C35.6853 50.301 35.5602 50.3056 35.4339 50.3056V52.3056C35.6095 52.3056 35.7838 52.2991 35.9565 52.2864L35.809 50.2918ZM41.7773 50.2891H35.8827V52.2891H41.7773V50.2891ZM45.343 46.7234C45.343 48.6927 43.7466 50.2891 41.7773 50.2891V52.2891C44.8512 52.2891 47.343 49.7973 47.343 46.7234H45.343ZM43.7483 43.7514C44.7116 44.3919 45.343 45.4841 45.343 46.7234H47.343C47.343 44.7865 46.3528 43.0814 44.8556 42.0859L43.7483 43.7514ZM44.5825 41.9187H44.302V43.9187H44.5825V41.9187ZM48.1482 38.353C48.1482 40.3223 46.5518 41.9187 44.5825 41.9187V43.9187C47.6563 43.9187 50.1482 41.4268 50.1482 38.353H48.1482ZM46.5535 35.381C47.5168 36.0215 48.1482 37.1137 48.1482 38.353H50.1482C50.1482 36.4161 49.158 34.7109 47.6608 33.7155L46.5535 35.381ZM47.3877 33.5482H47.1072V35.5482H47.3877V33.5482ZM50.9534 29.9825C50.9534 31.9518 49.357 33.5482 47.3877 33.5482V35.5482C50.4615 35.5482 52.9534 33.0564 52.9534 29.9825H50.9534ZM49.3588 27.0106C50.322 27.6511 50.9534 28.7433 50.9534 29.9825H52.9534C52.9534 28.0457 51.9632 26.3406 50.4662 25.3452L49.3588 27.0106ZM50.1931 25.1779H49.9125V27.1779H50.1931V25.1779ZM53.7588 21.6122C53.7588 23.5815 52.1624 25.1779 50.1931 25.1779V27.1779C53.2669 27.1779 55.7588 24.686 55.7588 21.6122H53.7588ZM50.1931 18.0465C52.1624 18.0465 53.7588 19.6429 53.7588 21.6122H55.7588C55.7588 18.5383 53.2669 16.0465 50.1931 16.0465V18.0465ZM25.7591 18.0465H50.1931V16.0465H25.7591V18.0465ZM26.3873 14.6942L24.9842 16.4145L26.5341 17.6786L27.9372 15.9583L26.3873 14.6942ZM27.2458 12.8819C27.1064 13.541 26.8198 14.1639 26.3873 14.6942L27.9372 15.9583C28.5827 15.1668 29.0011 14.2481 29.2025 13.2959L27.2458 12.8819ZM27.9366 10.4131C27.9799 11.1956 27.7711 11.9349 27.3792 12.5542L29.0692 13.6237C29.6752 12.666 30.0007 11.5163 29.9335 10.3025L27.9366 10.4131ZM27.6441 5.13204L27.9366 10.4131L29.9335 10.3025L29.6411 5.02146L27.6441 5.13204ZM23.4418 1.40758C25.6425 1.2641 27.5222 2.9301 27.6441 5.13204L29.6411 5.02146C29.4577 1.709 26.6222 -0.804021 23.3117 -0.588186L23.4418 1.40758ZM19.2547 1.68056L23.4418 1.40758L23.3117 -0.588186L19.1246 -0.315201L19.2547 1.68056Z" fill="black" mask="url(#path-1-inside-1_390_2832)"/>
</svg>
