<svg width="88" height="87" viewBox="0 0 88 87" fill="none" xmlns="http://www.w3.org/2000/svg">
<path d="M23.5423 32.0433C25.1081 30.4775 26.8452 29.1865 28.6929 28.1664C38.9905 22.492 52.1952 25.5093 58.8154 35.5456L50.8041 43.5525C48.5071 38.3133 42.8036 35.3316 37.1286 36.6013C34.992 37.0792 32.9625 38.1456 31.3039 39.8041L15.9519 55.1617C11.2899 59.8232 11.2899 67.4057 15.9519 72.0672C20.6138 76.7287 28.1971 76.7287 32.859 72.0672L37.5923 67.3343C41.8976 69.0427 46.5132 69.7239 51.0717 69.3851L40.6242 79.8316C31.6677 88.7872 17.1468 88.7872 8.19028 79.8316C-0.766227 70.8759 -0.766227 56.3565 8.19028 47.4009L23.5423 32.0433ZM47.9257 7.66228L37.4782 18.1087C42.0331 17.7663 46.6523 18.4511 50.9575 20.1559L55.6872 15.4267C60.3492 10.7652 67.9324 10.7652 72.5944 15.4267C77.2563 20.0882 77.2563 27.6707 72.5944 32.3322L57.2389 47.6862C52.5626 52.3619 44.9687 52.3227 40.3317 47.6862C39.2509 46.6055 38.32 45.2609 37.7386 43.9377L29.7273 51.9446C30.5691 53.2215 31.443 54.3235 32.5665 55.447C35.4629 58.3431 39.1511 60.5008 43.3957 61.5244C48.8959 62.8476 54.7884 62.1165 59.8498 59.3239C61.6975 58.3038 63.4346 57.0127 65.0005 55.447L80.3524 40.093C89.3125 31.1374 89.3125 16.6179 80.356 7.66228C71.3995 -1.28977 56.8822 -1.28977 47.9257 7.66228Z" fill="black"/>
<path d="M21.1126 31.0411C22.6026 29.5259 24.2555 28.2764 26.0137 27.2892C35.8124 21.7977 48.3773 24.7178 54.6767 34.4306L47.0536 42.1795C44.8678 37.1091 39.4407 34.2235 34.0407 35.4523C32.0076 35.9148 30.0764 36.9469 28.4981 38.5519L13.89 53.4145C9.45392 57.9258 9.45392 65.2639 13.89 69.7752C18.3261 74.2864 25.5419 74.2864 29.978 69.7752L34.4819 65.1949C38.5786 66.8482 42.9705 67.5074 47.3082 67.1795L37.3669 77.2893C28.8443 85.9563 15.027 85.9563 6.50446 77.2893C-2.01809 68.6223 -2.01809 54.5708 6.50446 45.9038L21.1126 31.0411ZM44.3146 7.44591L34.3733 17.5557C38.7076 17.2243 43.1029 17.887 47.1996 19.5369L51.7001 14.9601C56.1362 10.4488 63.352 10.4488 67.7881 14.9601C72.2242 19.4713 72.2242 26.8095 67.7881 31.3207L53.1766 46.1799C48.7269 50.705 41.5009 50.667 37.0886 46.1799C36.0602 45.1341 35.1743 43.8328 34.6211 42.5523L26.998 50.3012C27.799 51.5368 28.6305 52.6034 29.6997 53.6906C32.4557 56.4933 35.9651 58.5816 40.0041 59.5722C45.2378 60.8527 50.8448 60.1452 55.661 57.4425C57.4192 56.4554 59.0721 55.2059 60.5621 53.6906L75.1702 38.8314C83.6962 30.1644 83.6962 16.1129 75.1736 7.44591C66.6511 -1.21765 52.8371 -1.21765 44.3146 7.44591Z" fill="#96B9A0"/>
</svg>
