<svg width="140" height="140" viewBox="0 0 140 140" fill="none" xmlns="http://www.w3.org/2000/svg">
<circle cx="70" cy="70" r="65.5" fill="#FFFCF6" stroke="black" stroke-width="9"/>
<path d="M39.375 70C39.375 71.1603 38.9141 72.2731 38.0936 73.0936C37.2731 73.9141 36.1603 74.375 35 74.375C33.8397 74.375 32.7269 73.9141 31.9064 73.0936C31.0859 72.2731 30.625 71.1603 30.625 70C30.625 68.8397 31.0859 67.7269 31.9064 66.9064C32.7269 66.0859 33.8397 65.625 35 65.625C36.1603 65.625 37.2731 66.0859 38.0936 66.9064C38.9141 67.7269 39.375 68.8397 39.375 70ZM74.375 70C74.375 71.1603 73.9141 72.2731 73.0936 73.0936C72.2731 73.9141 71.1603 74.375 70 74.375C68.8397 74.375 67.7269 73.9141 66.9064 73.0936C66.0859 72.2731 65.625 71.1603 65.625 70C65.625 68.8397 66.0859 67.7269 66.9064 66.9064C67.7269 66.0859 68.8397 65.625 70 65.625C71.1603 65.625 72.2731 66.0859 73.0936 66.9064C73.9141 67.7269 74.375 68.8397 74.375 70ZM109.375 70C109.375 71.1603 108.914 72.2731 108.094 73.0936C107.273 73.9141 106.16 74.375 105 74.375C103.84 74.375 102.727 73.9141 101.906 73.0936C101.086 72.2731 100.625 71.1603 100.625 70C100.625 68.8397 101.086 67.7269 101.906 66.9064C102.727 66.0859 103.84 65.625 105 65.625C106.16 65.625 107.273 66.0859 108.094 66.9064C108.914 67.7269 109.375 68.8397 109.375 70Z" fill="black" stroke="black" stroke-width="11" stroke-linecap="round" stroke-linejoin="round"/>
</svg>
