<svg width="25" height="25" viewBox="0 0 25 25" fill="none" xmlns="http://www.w3.org/2000/svg">
<path d="M16.6356 17.7408C15.095 19.0304 13.1106 19.8085 10.947 19.8085C6.05433 19.8085 2.0835 15.8377 2.0835 10.946C2.0835 6.05433 6.05433 2.0835 10.947 2.0835C15.8377 2.0835 19.8095 6.05433 19.8095 10.946C19.8095 13.1106 19.0314 15.096 17.7418 16.6345L22.6887 21.5825C22.8408 21.7345 22.9168 21.9345 22.9168 22.1356C22.9168 22.747 22.3575 22.9168 22.1356 22.9168C21.9356 22.9168 21.7356 22.8408 21.5825 22.6877L16.6356 17.7408ZM10.947 3.64704C6.91787 3.64704 3.64808 6.91787 3.64808 10.946C3.64808 14.9741 6.91787 18.245 10.947 18.245C14.9741 18.245 18.246 14.9741 18.246 10.946C18.246 6.91787 14.9741 3.64704 10.947 3.64704Z" fill="#A59999"/>
</svg>
