<svg width="88" height="86" viewBox="0 0 88 86" fill="none" xmlns="http://www.w3.org/2000/svg">
<ellipse cx="44.4395" cy="43" rx="43.5" ry="43" fill="#FFCB66"/>
<path d="M63.0323 24.6541C56.4198 24.6541 63.6674 33.8445 65.8926 28.8953C66.3924 27.7839 65.5036 23.3784 63.7315 24.7798C61.4081 26.6172 62.0943 28.0471 64.7485 28.0471" stroke="black" stroke-width="3" stroke-linecap="round"/>
<path d="M13.8341 33.1366C7.2216 33.1366 14.4692 42.3269 16.6944 37.3777C17.1941 36.2663 16.3054 31.8608 14.5333 33.2622C12.2098 35.0996 12.8961 36.5295 15.5503 36.5295" stroke="black" stroke-width="3" stroke-linecap="round"/>
<path d="M5.25293 42.7014C7.59654 42.7014 9.73887 43.8323 12.1177 43.8323C16.6603 43.8323 21.0378 44.3978 25.5613 44.3978C33.2831 44.3978 40.4538 43.4054 47.713 40.7536C57.0165 37.3548 68.4834 34.4848 75.6171 27.4331" stroke="black" stroke-width="3" stroke-linecap="round"/>
</svg>
