<svg width="42" height="50" viewBox="0 0 42 50" fill="none" xmlns="http://www.w3.org/2000/svg">
<path d="M27.0603 8.12612C25.7338 7.35574 24.9139 5.92208 24.916 4.37719V4.37101C24.9181 1.95686 22.9839 0 20.5985 0C18.2132 0 16.279 1.95686 16.279 4.37101V4.37719C16.2811 5.92414 15.4633 7.35574 14.1347 8.12612C4.52138 13.7124 10.0459 32.2573 0 35.5345V39.1372H41.1971V35.5345C31.1512 32.2573 36.6757 13.7124 27.0603 8.12612ZM20.5985 2.05985C21.7356 2.05985 22.6584 2.98473 22.6584 4.11971C22.6584 5.25675 21.7356 6.17956 20.5985 6.17956C19.4615 6.17956 18.5387 5.25675 18.5387 4.11971C18.5387 2.98473 19.4615 2.05985 20.5985 2.05985ZM26.7781 43.2569C26.7781 46.5486 23.9108 49.4365 20.6583 49.4365C17.4058 49.4365 14.419 46.5486 14.419 43.2569H26.7781Z" fill="black"/>
</svg>
