<svg width="43" height="52" viewBox="0 0 43 52" fill="none" xmlns="http://www.w3.org/2000/svg">
<path d="M28.0603 10.1261C26.7338 9.35574 25.9139 7.92208 25.916 6.37719V6.37101C25.9181 3.95686 23.9839 2 21.5985 2C19.2132 2 17.279 3.95686 17.279 6.37101V6.37719C17.2811 7.92414 16.4633 9.35574 15.1347 10.1261C5.52138 15.7124 11.0459 34.2573 1 37.5345V41.1372H42.1971V37.5345C32.1512 34.2573 37.6757 15.7124 28.0603 10.1261ZM21.5985 4.05985C22.7356 4.05985 23.6584 4.98473 23.6584 6.11971C23.6584 7.25675 22.7356 8.17956 21.5985 8.17956C20.4615 8.17956 19.5387 7.25675 19.5387 6.11971C19.5387 4.98473 20.4615 4.05985 21.5985 4.05985ZM27.7781 45.2569C27.7781 48.5486 24.9108 51.4365 21.6583 51.4365C18.4058 51.4365 15.419 48.5486 15.419 45.2569H27.7781Z" fill="black"/>
<path d="M27.0603 8.12613C25.7338 7.35574 24.9139 5.92208 24.916 4.37719V4.37101C24.9181 1.95686 22.9839 0 20.5985 0C18.2132 0 16.279 1.95686 16.279 4.37101V4.37719C16.2811 5.92414 15.4633 7.35574 14.1347 8.12613C9.44348 10.8522 8.35713 16.6642 7.30707 22.2819C6.20535 28.1762 5.14358 33.8566 0 35.5345V39.1372H41.1971V35.5345C36.0538 33.8567 34.9919 28.1768 33.8899 22.2829C32.8395 16.6649 31.7528 10.8524 27.0603 8.12613ZM20.5985 2.05985C21.7356 2.05985 22.6584 2.98473 22.6584 4.11971C22.6584 5.25675 21.7356 6.17956 20.5985 6.17956C19.4615 6.17956 18.5387 5.25675 18.5387 4.11971C18.5387 2.98473 19.4615 2.05985 20.5985 2.05985ZM26.7781 43.2569C26.7781 46.5486 23.9108 49.4365 20.6583 49.4365C17.4058 49.4365 14.419 46.5486 14.419 43.2569H26.7781Z" fill="white"/>
<path d="M27.0603 8.12613C25.7338 7.35574 24.9139 5.92208 24.916 4.37719V4.37101C24.9181 1.95686 22.9839 0 20.5985 0C18.2132 0 16.279 1.95686 16.279 4.37101V4.37719C16.2811 5.92414 15.4633 7.35574 14.1347 8.12613C9.44348 10.8522 8.35713 16.6642 7.30707 22.2819C6.20535 28.1762 5.14358 33.8566 0 35.5345V39.1372H41.1971V35.5345C36.0538 33.8567 34.9919 28.1768 33.8899 22.2829C32.8395 16.6649 31.7528 10.8524 27.0603 8.12613ZM20.5985 2.05985C21.7356 2.05985 22.6584 2.98473 22.6584 4.11971C22.6584 5.25675 21.7356 6.17956 20.5985 6.17956C19.4615 6.17956 18.5387 5.25675 18.5387 4.11971C18.5387 2.98473 19.4615 2.05985 20.5985 2.05985ZM26.7781 43.2569C26.7781 46.5486 23.9108 49.4365 20.6583 49.4365C17.4058 49.4365 14.419 46.5486 14.419 43.2569H26.7781Z" stroke="black"/>
</svg>
