<svg width="39" height="35" viewBox="0 0 39 35" fill="none" xmlns="http://www.w3.org/2000/svg">
<path d="M37.5241 34.0001V26.9034C37.5241 25.8894 33.9977 21.7875 28.2244 21.3268C22.4511 20.8662 15.484 20.138 15.1414 18.4063C14.7989 16.6746 12.8591 24.997 12.8591 24.997V34.0001H37.5241Z" fill="black" stroke="black"/>
<ellipse cx="24.378" cy="8.89722" rx="7.57938" ry="8.89722" fill="black"/>
<path d="M9.43367 1.37704H3.52417C3.52417 1.37704 3.52417 20.1247 12.2597 24.4674C20.9952 28.8101 16.6276 19.5951 16.6276 19.5951C10.7508 14.2328 9.28277 10.183 9.43367 1.37704Z" fill="black" stroke="black"/>
<path d="M34.7195 34.0001V26.9034C34.7195 25.8894 31.1931 21.7875 25.4197 21.3268C19.6464 20.8662 12.6793 20.138 12.3367 18.4063C11.9942 16.6746 10.0544 24.997 10.0544 24.997V34.0001H34.7195Z" fill="#FFFCF6" stroke="#FFFCF6"/>
<ellipse cx="21.5733" cy="8.89722" rx="7.57938" ry="8.89722" fill="#FFFCF6"/>
<path d="M6.62898 1.37704H0.719482C0.719482 1.37704 0.719482 20.1247 9.45501 24.4674C18.1905 28.8101 13.8229 19.5951 13.8229 19.5951C7.94611 14.2328 6.47808 10.183 6.62898 1.37704Z" fill="#FFFCF6" stroke="#FFFCF6"/>
</svg>
