<svg width="65" height="64" viewBox="0 0 65 64" fill="none" xmlns="http://www.w3.org/2000/svg">
<path d="M28.3463 13.1883C28.5734 11.8368 29.7595 10.8444 31.1476 10.8444H37.6915C39.0796 10.8444 40.2657 11.8368 40.4928 13.1883L41.0304 16.3825C41.1894 17.3151 41.8203 18.0931 42.6582 18.5519C42.8449 18.6517 43.0292 18.7589 43.2134 18.8686C44.0311 19.3573 45.0305 19.5094 45.9264 19.1778L48.9977 18.0407C49.6271 17.8069 50.3201 17.8013 50.9533 18.0251C51.5864 18.2488 52.1187 18.6873 52.4552 19.2626L55.7259 24.8655C56.0617 25.4408 56.18 26.1151 56.0599 26.7685C55.9397 27.4219 55.5889 28.012 55.0697 28.4338L52.5385 30.4959C51.799 31.0944 51.4331 32.0244 51.4508 32.9695C51.4548 33.1814 51.4548 33.3934 51.4508 33.6053C51.4331 34.5479 51.799 35.4755 52.5359 36.0739L55.0723 38.1386C56.1423 39.0113 56.4199 40.5174 55.7284 41.7043L52.4527 47.3073C52.1166 47.8824 51.585 48.321 50.9524 48.5452C50.3197 48.7694 49.6271 48.7646 48.9977 48.5316L45.9264 47.3945C45.0305 47.0629 44.0336 47.215 43.2109 47.7037C43.0279 47.8137 42.8428 47.9201 42.6557 48.0229C41.8203 48.4792 41.1894 49.2572 41.0304 50.1898L40.4928 53.3815C40.2657 54.7355 39.0796 55.7279 37.6915 55.7279H31.1451C29.757 55.7279 28.5709 54.7355 28.3437 53.384L27.8062 50.1898C27.6497 49.2572 27.0188 48.4792 26.1809 48.0204C25.9938 47.9184 25.8087 47.8129 25.6257 47.7037C24.8055 47.215 23.8087 47.0629 22.9102 47.3945L19.8389 48.5316C19.2098 48.7648 18.5174 48.77 17.8848 48.5463C17.2522 48.3226 16.7204 47.8844 16.3839 47.3098L13.1107 41.7068C12.7749 41.1315 12.6565 40.4572 12.7767 39.8038C12.8968 39.1504 13.2477 38.5604 13.7669 38.1386L16.3006 36.0764C17.0376 35.478 17.4035 34.5479 17.3858 33.6028C17.3819 33.3909 17.3819 33.1789 17.3858 32.967C17.4035 32.0244 17.0376 31.0968 16.3006 30.4984L13.7669 28.4338C13.2483 28.0121 12.8979 27.4225 12.7777 26.7696C12.6576 26.1168 12.7756 25.443 13.1107 24.868L16.3839 19.2651C16.7201 18.6894 17.2521 18.2503 17.8853 18.0261C18.5185 17.8019 19.2117 17.8071 19.8414 18.0407L22.9102 19.1778C23.8087 19.5094 24.8055 19.3573 25.6257 18.8686C25.8074 18.7589 25.9942 18.6517 26.1809 18.5494C27.0188 18.0931 27.6497 17.3151 27.8062 16.3825L28.3463 13.1883Z" fill="black"/>
<path d="M41.9894 33.2862C41.9894 35.2701 41.1917 37.1729 39.7718 38.5757C38.352 39.9786 36.4262 40.7668 34.4183 40.7668C32.4103 40.7668 30.4845 39.9786 29.0647 38.5757C27.6448 37.1729 26.8472 35.2701 26.8472 33.2862C26.8472 31.3022 27.6448 29.3995 29.0647 27.9966C30.4845 26.5937 32.4103 25.8056 34.4183 25.8056C36.4262 25.8056 38.352 26.5937 39.7718 27.9966C41.1917 29.3995 41.9894 31.3022 41.9894 33.2862Z" fill="#FFCB66"/>
<path d="M24.9151 10.033C25.1423 8.6815 26.3284 7.68908 27.7164 7.68908H34.2604C35.6484 7.68908 36.8346 8.6815 37.0617 10.033L37.5992 13.2272C37.7582 14.1598 38.3892 14.9378 39.227 15.3966C39.4138 15.4963 39.598 15.6035 39.7822 15.7132C40.5999 16.202 41.5993 16.3541 42.4952 16.0224L45.5666 14.8854C46.196 14.6515 46.889 14.646 47.5221 14.8697C48.1553 15.0935 48.6875 15.532 49.024 16.1072L52.2948 21.7102C52.6305 22.2855 52.7489 22.9598 52.6287 23.6132C52.5086 24.2665 52.1577 24.8566 51.6386 25.2784L49.1073 27.3406C48.3679 27.939 48.0019 28.8691 48.0196 29.8141C48.0236 30.0261 48.0236 30.2381 48.0196 30.45C48.0019 31.3926 48.3679 32.3201 49.1048 32.9186L51.6411 34.9832C52.7112 35.856 52.9888 37.3621 52.2973 38.549L49.0215 44.1519C48.6855 44.727 48.1538 45.1657 47.5212 45.3899C46.8886 45.6141 46.1959 45.6092 45.5666 45.3763L42.4952 44.2392C41.5993 43.9076 40.6024 44.0597 39.7797 44.5484C39.5967 44.6583 39.4116 44.7647 39.2245 44.8676C38.3892 45.3239 37.7582 46.1019 37.5992 47.0344L37.0617 50.2262C36.8346 51.5802 35.6484 52.5726 34.2604 52.5726H27.7139C26.3259 52.5726 25.1397 51.5801 24.9126 50.2287L24.375 47.0344C24.2186 46.1019 23.5877 45.3239 22.7498 44.8651C22.5626 44.7631 22.3775 44.6575 22.1946 44.5484C21.3744 44.0597 20.3775 43.9076 19.4791 44.2392L16.4077 45.3763C15.7786 45.6095 15.0862 45.6147 14.4536 45.3909C13.821 45.1672 13.2892 44.7291 12.9528 44.1544L9.67954 38.5515C9.34374 37.9762 9.22539 37.3019 9.34554 36.6485C9.4657 35.9951 9.81656 35.405 10.3357 34.9832L12.8695 32.9211C13.6064 32.3226 13.9724 31.3926 13.9547 30.4475C13.9507 30.2356 13.9507 30.0236 13.9547 29.8117C13.9724 28.8691 13.6064 27.9415 12.8695 27.3431L10.3357 25.2784C9.81718 24.8568 9.46673 24.2671 9.34659 23.6143C9.22646 22.9615 9.34443 22.2877 9.67954 21.7127L12.9528 16.1097C13.2889 15.5341 13.821 15.095 14.4542 14.8708C15.0874 14.6466 15.7806 14.6517 16.4102 14.8854L19.4791 16.0224C20.3775 16.3541 21.3744 16.202 22.1946 15.7132C22.3763 15.6035 22.563 15.4963 22.7498 15.3941C23.5877 14.9378 24.2186 14.1598 24.375 13.2272L24.9151 10.033Z" fill="white" stroke="black" stroke-width="0.2" stroke-linecap="round" stroke-linejoin="round"/>
<path d="M38.5582 30.1308C38.5582 32.1148 37.7606 34.0175 36.3407 35.4204C34.9208 36.8233 32.9951 37.6114 30.9871 37.6114C28.9791 37.6114 27.0534 36.8233 25.6335 35.4204C24.2137 34.0175 23.416 32.1148 23.416 30.1308C23.416 28.1469 24.2137 26.2441 25.6335 24.8413C27.0534 23.4384 28.9791 22.6502 30.9871 22.6502C32.9951 22.6502 34.9208 23.4384 36.3407 24.8413C37.7606 26.2441 38.5582 28.1469 38.5582 30.1308Z" fill="#FFCB66"/>
</svg>
