<svg width="65" height="65" viewBox="0 0 65 65" fill="none" xmlns="http://www.w3.org/2000/svg">
<path d="M24.8087 10.28C25.0358 8.9071 26.2219 7.89893 27.61 7.89893H34.1539C35.542 7.89893 36.7281 8.9071 36.9552 10.28L37.4928 13.525C37.6518 14.4723 38.2827 15.2627 39.1206 15.7288C39.3073 15.8301 39.4916 15.939 39.6758 16.0505C40.4935 16.547 41.4929 16.7015 42.3888 16.3646L45.4601 15.2095C46.0895 14.9719 46.7825 14.9662 47.4157 15.1935C48.0488 15.4208 48.5811 15.8663 48.9176 16.4507L52.1883 22.1426C52.5241 22.727 52.6424 23.412 52.5223 24.0758C52.4021 24.7395 52.0513 25.339 51.5321 25.7675L49.0009 27.8623C48.2614 28.4703 47.8955 29.4151 47.9132 30.3752C47.9172 30.5905 47.9172 30.8058 47.9132 31.0211C47.8955 31.9786 48.2614 32.921 48.9983 33.5289L51.5347 35.6263C52.6047 36.5129 52.8823 38.0429 52.1908 39.2487L48.9151 44.9406C48.579 45.5248 48.0474 45.9704 47.4148 46.1982C46.7821 46.4259 46.0895 46.421 45.4601 46.1843L42.3888 45.0292C41.4929 44.6923 40.496 44.8468 39.6733 45.3433C39.4903 45.455 39.3052 45.5631 39.1181 45.6676C38.2827 46.1311 37.6518 46.9214 37.4928 47.8688L36.9552 51.1112C36.7281 52.4867 35.542 53.4949 34.1539 53.4949H27.6075C26.2194 53.4949 25.0333 52.4867 24.8062 51.1137L24.2686 47.8688C24.1121 46.9214 23.4812 46.1311 22.6433 45.665C22.4562 45.5614 22.2711 45.4542 22.0881 45.3433C21.2679 44.8468 20.2711 44.6923 19.3726 45.0292L16.3013 46.1843C15.6722 46.4212 14.9798 46.4265 14.3472 46.1992C13.7146 45.972 13.1828 45.5269 12.8463 44.9431L9.57309 39.2512C9.2373 38.6668 9.11895 37.9818 9.2391 37.318C9.35925 36.6543 9.71011 36.0548 10.2293 35.6263L12.7631 33.5314C13.5 32.9235 13.8659 31.9786 13.8482 31.0186C13.8443 30.8033 13.8443 30.5879 13.8482 30.3727C13.8659 29.4151 13.5 28.4728 12.7631 27.8649L10.2293 25.7675C9.71074 25.3391 9.36028 24.7401 9.24015 24.0769C9.12002 23.4137 9.23798 22.7293 9.57309 22.1451L12.8463 16.4532C13.1825 15.8684 13.7145 15.4224 14.3477 15.1946C14.9809 14.9668 15.6741 14.9721 16.3038 15.2095L19.3726 16.3646C20.2711 16.7015 21.2679 16.547 22.0881 16.0505C22.2698 15.939 22.4566 15.8301 22.6433 15.7262C23.4812 15.2627 24.1121 14.4723 24.2686 13.525L24.8087 10.28Z" fill="black" stroke="black" stroke-width="0.2" stroke-linecap="round" stroke-linejoin="round"/>
<path d="M38.4518 30.697C38.4518 32.7124 37.6541 34.6454 36.2342 36.0705C34.8144 37.4957 32.8887 38.2963 30.8807 38.2963C28.8727 38.2963 26.947 37.4957 25.5271 36.0705C24.1072 34.6454 23.3096 32.7124 23.3096 30.697C23.3096 28.6815 24.1072 26.7486 25.5271 25.3234C26.947 23.8983 28.8727 23.0977 30.8807 23.0977C32.8887 23.0977 34.8144 23.8983 36.2342 25.3234C37.6541 26.7486 38.4518 28.6815 38.4518 30.697Z" fill="#FFCB66"/>
</svg>
