<svg width="60" height="58" viewBox="0 0 60 58" fill="none" xmlns="http://www.w3.org/2000/svg">
<rect x="2.55835" y="5.46094" width="56.9416" height="51.8764" rx="25.9382" fill="black"/>
<rect x="1" y="0.837402" width="55.9416" height="50.8764" rx="25.4382" fill="#FFCB66" stroke="black"/>
<path d="M27.5473 29.5131V33.0227C27.5473 33.4675 27.0807 33.8324 26.4998 33.8324C26.2379 33.8324 25.9774 33.7557 25.7782 33.61C23.3055 31.791 18.8895 28.5448 16.8682 27.0582C16.5896 26.8542 16.4336 26.5703 16.4336 26.2756C16.4336 25.9798 16.5896 25.6969 16.8682 25.4929C18.8895 24.0064 23.3055 20.7591 25.7782 18.9422C25.9774 18.7954 26.2379 18.7188 26.4998 18.7188C27.0807 18.7188 27.5473 19.0826 27.5473 19.5284V23.038H40.1127C40.8524 23.038 41.5085 23.5454 41.5085 24.1176V28.4336C41.5085 29.0057 40.8524 29.5131 40.1127 29.5131H27.5473Z" fill="black"/>
</svg>
