<svg width="241" height="107" viewBox="0 0 241 107" fill="none" xmlns="http://www.w3.org/2000/svg">
<path d="M240 102.345V31.7395C240 29.5304 238.209 27.7395 236 27.7395H213.337C210.457 27.7395 208.521 24.7874 209.668 22.1458L212.648 15.2873C214.323 11.4307 209.676 7.93211 206.433 10.6083L191.366 23.0417C190.671 23.6149 189.803 23.9369 188.903 23.9556L10.9168 27.6581C8.74056 27.7033 7 29.4805 7 31.6572V102.345C7 104.554 8.79086 106.345 11 106.345H190.293H210.588H219.289H236C238.209 106.345 240 104.554 240 102.345Z" fill="black" stroke="black"/>
<path d="M234 97.3452V26.7398C234 24.5306 232.209 22.7398 230 22.7398H209.631C202.897 22.7398 215.99 7.17785 209.631 7.17785C200.897 7.17785 172.859 22.7398 164.65 22.7398H5.0132C2.80406 22.7398 1 24.5306 1 26.7398V97.3452C1 99.5544 2.79086 101.345 5 101.345H184.293H209.631H213.289H230C232.209 101.345 234 99.5544 234 97.3452Z" fill="#96B9A0" stroke="black"/>
</svg>
