<svg width="241" height="108" viewBox="0 0 241 108" fill="none" xmlns="http://www.w3.org/2000/svg">
<path d="M236 6H11C8.79086 6 7 7.79086 7 10V80.6055C7 82.8146 8.79086 84.6055 11 84.6055H189.264C189.939 84.6055 190.603 84.7763 191.195 85.1021L220.215 101.092C223.76 103.046 227.631 99.1019 225.612 95.594L222.739 90.6005C221.204 87.9339 223.129 84.6055 226.206 84.6055H236C238.209 84.6055 240 82.8146 240 80.6055V10C240 7.79086 238.209 6 236 6Z" fill="black" stroke="black"/>
<path d="M230 1H5C2.79086 1 1 2.79086 1 5V75.6055C1 77.8146 2.79086 79.6055 5 79.6055H183.264C183.939 79.6055 184.603 79.7763 185.195 80.1021L214.215 96.0924C217.76 98.0456 221.631 94.1019 219.612 90.594L216.739 85.6005C215.204 82.9339 217.129 79.6055 220.206 79.6055H230C232.209 79.6055 234 77.8146 234 75.6055V5C234 2.79086 232.209 1 230 1Z" fill="#96B9A0" stroke="black"/>
</svg>
